<?xml version="1.0" encoding="utf-8"?>
<!-- Generator: Adobe Illustrator 15.0.0, SVG Export Plug-In  -->
<!DOCTYPE svg PUBLIC "-//W3C//DTD SVG 1.1//EN" "http://www.w3.org/Graphics/SVG/1.1/DTD/svg11.dtd" [
	<!ENTITY ns_flows "http://ns.adobe.com/Flows/1.0/">
]>
<svg version="1.1"
	 xmlns="http://www.w3.org/2000/svg" xmlns:xlink="http://www.w3.org/1999/xlink" xmlns:a="http://ns.adobe.com/AdobeSVGViewerExtensions/3.0/"
	 x="0px" y="0px" width="19px" height="19px" viewBox="-0.146 -0.022 19 19" enable-background="new -0.146 -0.022 19 19"
	 xml:space="preserve">
<defs>
</defs>
<path fill="#204283" d="M9.311,0C4.17,0,0,4.169,0,9.311c0,5.143,4.17,9.311,9.311,9.311c5.144,0,9.312-4.168,9.312-9.311
	C18.623,4.169,14.455,0,9.311,0 M9.311,17.166c-4.336,0-7.855-3.514-7.855-7.855c0-4.34,3.519-7.855,7.855-7.855
	c4.34,0,7.855,3.516,7.855,7.855C17.166,13.652,13.651,17.166,9.311,17.166"/>
<path fill-rule="evenodd" clip-rule="evenodd" fill="#204283" d="M11.518,7.884H9.9V6.703c0-0.363,0.376-0.447,0.553-0.447h1.041
	V4.663l-1.195-0.01c-1.638,0-2.01,1.19-2.01,1.954v1.276H7.102v1.645H8.29v4.436H9.9V9.528h1.369L11.518,7.884z"/>
</svg>
