<?xml version="1.0" encoding="utf-8"?>
<!-- Generator: Adobe Illustrator 15.0.0, SVG Export Plug-In  -->
<!DOCTYPE svg PUBLIC "-//W3C//DTD SVG 1.1//EN" "http://www.w3.org/Graphics/SVG/1.1/DTD/svg11.dtd" [
	<!ENTITY ns_flows "http://ns.adobe.com/Flows/1.0/">
]>
<svg version="1.1"
	 xmlns="http://www.w3.org/2000/svg" xmlns:xlink="http://www.w3.org/1999/xlink" xmlns:a="http://ns.adobe.com/AdobeSVGViewerExtensions/3.0/"
	 x="0px" y="0px" width="278px" height="260px" viewBox="0 0 278 260" enable-background="new 0 0 278 260" xml:space="preserve">
<defs>
</defs>
<path fill="#204283" d="M87.245,197.983h12.24c0,0.202,0.008,0.482,0.021,0.846c0.042,0.947,0.064,1.593,0.064,1.927
	c0,4.141-1.247,7.358-3.737,9.647c-2.491,2.294-6,3.438-10.529,3.438c-2.535,0-4.792-0.355-6.779-1.065
	c-1.98-0.708-3.719-1.782-5.213-3.214c-1.462-1.423-2.584-3.09-3.365-5.007c-0.778-1.915-1.17-3.968-1.17-6.149
	c0-2.226,0.398-4.275,1.191-6.151c0.797-1.876,1.973-3.53,3.536-4.965c1.506-1.408,3.273-2.478,5.299-3.214
	c2.024-0.736,4.193-1.106,6.501-1.106c2.431,0,4.61,0.42,6.531,1.266c1.917,0.843,3.63,2.138,5.138,3.878l-3.673,2.635
	c-1.041-1.156-2.217-2.012-3.523-2.576c-1.309-0.562-2.774-0.843-4.391-0.843c-3.347,0-6.083,1.024-8.198,3.069
	c-2.12,2.041-3.178,4.698-3.178,7.966c0,3.325,1.058,6.02,3.178,8.092c2.115,2.071,4.863,3.105,8.238,3.105
	c2.871,0,5.13-0.636,6.777-1.911c1.646-1.272,2.469-3.006,2.469-5.207v-0.42h-7.429V197.983z"/>
<path fill="#204283" d="M125.255,213.059l-3.503-7.578H109.51l-3.589,7.578h-5.275l14.962-30.593l14.944,30.593H125.255z
	 M111.368,201.5h8.611l-3.168-6.714c-0.183-0.426-0.37-0.918-0.569-1.475c-0.196-0.559-0.393-1.177-0.591-1.862
	c-0.168,0.644-0.347,1.243-0.535,1.799c-0.19,0.558-0.388,1.07-0.583,1.538L111.368,201.5z"/>
<path fill="#204283" d="M129.032,183.632h4.958l5.85,14.853c0.378,0.977,0.7,1.837,0.96,2.572c0.259,0.741,0.487,1.427,0.685,2.072
	c0.491-1.556,1.005-3.075,1.541-4.563c0.067-0.188,0.118-0.315,0.148-0.381l6.205-15.719l6.541,16.019
	c0.311,0.78,0.602,1.557,0.876,2.333c0.274,0.775,0.529,1.56,0.77,2.352c0.14-0.604,0.33-1.266,0.568-1.991
	c0.241-0.722,0.552-1.579,0.93-2.57l5.805-14.976h5l-11.967,30.574l-7.048-16.785c-0.309-0.75-0.592-1.472-0.843-2.162
	c-0.255-0.692-0.481-1.341-0.678-1.96c-0.238,0.792-0.476,1.534-0.717,2.222c-0.241,0.69-0.487,1.35-0.738,1.979l-6.923,16.705
	L129.032,183.632z"/>
<path fill="#204283" d="M192.937,213.059l-3.505-7.578h-12.238l-3.591,7.578h-5.275l14.963-30.593l14.944,30.593H192.937z
	 M179.05,201.5h8.611l-3.167-6.714c-0.182-0.426-0.374-0.918-0.571-1.475c-0.196-0.559-0.389-1.177-0.591-1.862
	c-0.167,0.644-0.346,1.243-0.535,1.799c-0.19,0.558-0.387,1.07-0.583,1.538L179.05,201.5z"/>
<polygon fill="#204283" points="201.146,213.059 201.146,183.632 206.17,183.632 206.17,208.778 217.395,208.778 217.395,213.059 
	"/>
<path fill="#204283" d="M241.879,213.059l-3.506-7.578h-12.237l-3.591,7.578h-5.275l14.964-30.593l14.944,30.593H241.879z
	 M227.992,201.5h8.611l-3.168-6.714c-0.182-0.426-0.373-0.918-0.57-1.475c-0.196-0.559-0.392-1.177-0.591-1.862
	c-0.167,0.644-0.347,1.243-0.535,1.799c-0.193,0.558-0.388,1.07-0.582,1.538L227.992,201.5z"/>
<path fill="#204283" d="M250.087,213.059v-30.593l19.628,17.99c0.536,0.51,1.077,1.051,1.625,1.628
	c0.549,0.577,1.124,1.225,1.73,1.949v-20.401h4.642v30.574l-20.026-18.311c-0.538-0.496-1.054-1.02-1.553-1.571
	c-0.5-0.549-0.973-1.123-1.426-1.728v20.463H250.087z"/>
<path fill="#204283" d="M112.299,229.4c0,0.337-0.05,0.641-0.141,0.916c-0.096,0.269-0.224,0.512-0.392,0.721
	c-0.166,0.211-0.364,0.392-0.593,0.542c-0.231,0.151-0.483,0.277-0.761,0.373c-0.277,0.099-0.573,0.169-0.885,0.215
	c-0.319,0.049-0.667,0.072-1.052,0.072h-2.556c-0.164,0-0.298-0.052-0.411-0.143c-0.11-0.097-0.167-0.25-0.167-0.465v-8.242
	c0-0.218,0.057-0.37,0.167-0.465c0.113-0.1,0.247-0.144,0.411-0.144h2.415c0.588,0,1.085,0.049,1.495,0.146
	c0.408,0.097,0.752,0.245,1.03,0.444c0.283,0.197,0.495,0.445,0.644,0.746c0.149,0.302,0.222,0.658,0.222,1.068
	c0,0.229-0.029,0.444-0.087,0.645c-0.06,0.206-0.147,0.391-0.262,0.553c-0.113,0.168-0.252,0.313-0.42,0.439
	c-0.166,0.126-0.353,0.23-0.567,0.308c0.274,0.049,0.524,0.134,0.754,0.253c0.23,0.125,0.432,0.281,0.604,0.473
	c0.169,0.192,0.307,0.417,0.403,0.676C112.246,228.79,112.299,229.081,112.299,229.4 M109.773,225.416
	c0-0.186-0.029-0.358-0.089-0.509c-0.059-0.153-0.148-0.277-0.268-0.375c-0.118-0.099-0.27-0.178-0.449-0.231
	c-0.179-0.052-0.421-0.08-0.724-0.08h-0.989v2.456h1.094c0.281,0,0.507-0.034,0.672-0.101c0.169-0.066,0.312-0.157,0.422-0.269
	c0.112-0.115,0.195-0.249,0.247-0.403C109.746,225.752,109.773,225.589,109.773,225.416 M110.271,229.466
	c0-0.22-0.037-0.415-0.109-0.587c-0.076-0.175-0.185-0.319-0.328-0.436c-0.144-0.117-0.326-0.207-0.55-0.273
	c-0.221-0.06-0.512-0.092-0.869-0.092h-1.159v2.688h1.411c0.271,0,0.502-0.025,0.688-0.081c0.185-0.059,0.347-0.143,0.481-0.252
	c0.137-0.108,0.245-0.244,0.321-0.409C110.233,229.862,110.271,229.677,110.271,229.466"/>
<path fill="#204283" d="M124.118,231.483c0,0.142-0.004,0.26-0.016,0.357c-0.015,0.094-0.034,0.171-0.057,0.23
	c-0.027,0.056-0.056,0.099-0.093,0.126c-0.035,0.026-0.076,0.042-0.124,0.042h-4.824c-0.161,0-0.3-0.048-0.411-0.143
	c-0.113-0.097-0.167-0.25-0.167-0.463v-8.246c0-0.215,0.054-0.37,0.167-0.465c0.111-0.094,0.25-0.141,0.411-0.141h4.795
	c0.048,0,0.084,0.012,0.123,0.038c0.032,0.022,0.063,0.064,0.087,0.126c0.025,0.062,0.044,0.137,0.055,0.232
	c0.012,0.097,0.018,0.215,0.018,0.364c0,0.137-0.005,0.252-0.018,0.348c-0.011,0.095-0.03,0.17-0.055,0.231
	c-0.024,0.057-0.055,0.099-0.087,0.126c-0.038,0.029-0.074,0.041-0.123,0.041h-3.429v2.309h2.9c0.046,0,0.088,0.016,0.126,0.041
	c0.038,0.028,0.066,0.07,0.094,0.126c0.022,0.055,0.041,0.13,0.054,0.227c0.013,0.095,0.019,0.211,0.019,0.344
	c0,0.143-0.006,0.26-0.019,0.353c-0.013,0.092-0.031,0.167-0.054,0.224c-0.027,0.053-0.056,0.095-0.094,0.121
	c-0.038,0.024-0.08,0.035-0.126,0.035h-2.9v2.669h3.458c0.048,0,0.089,0.012,0.124,0.041c0.038,0.026,0.066,0.067,0.093,0.127
	c0.023,0.057,0.042,0.137,0.057,0.229C124.114,231.223,124.118,231.343,124.118,231.483"/>
<path fill="#204283" d="M136.792,223.568c0,0.144-0.002,0.26-0.014,0.364c-0.014,0.098-0.035,0.179-0.059,0.238
	c-0.023,0.064-0.056,0.106-0.092,0.137c-0.035,0.029-0.077,0.042-0.123,0.042h-2.407v7.625c0,0.049-0.014,0.095-0.046,0.133
	c-0.032,0.038-0.084,0.07-0.16,0.094c-0.073,0.025-0.175,0.042-0.299,0.061c-0.127,0.012-0.287,0.021-0.473,0.021
	c-0.19,0-0.345-0.009-0.471-0.021c-0.126-0.019-0.227-0.035-0.299-0.061c-0.077-0.024-0.129-0.056-0.163-0.094
	c-0.034-0.038-0.046-0.084-0.046-0.133v-7.625h-2.406c-0.05,0-0.091-0.013-0.126-0.042c-0.034-0.031-0.065-0.073-0.089-0.137
	c-0.025-0.059-0.043-0.14-0.056-0.238c-0.014-0.104-0.019-0.22-0.019-0.364c0-0.146,0.005-0.266,0.019-0.373
	c0.012-0.102,0.03-0.185,0.056-0.244c0.024-0.062,0.055-0.105,0.089-0.133c0.035-0.027,0.076-0.039,0.126-0.039h6.77
	c0.046,0,0.088,0.012,0.123,0.039c0.037,0.028,0.069,0.071,0.092,0.133c0.024,0.059,0.045,0.142,0.059,0.244
	C136.79,223.302,136.792,223.422,136.792,223.568"/>
<path fill="#204283" d="M149.068,223.568c0,0.144-0.006,0.26-0.02,0.364c-0.011,0.098-0.028,0.179-0.056,0.238
	c-0.022,0.064-0.056,0.106-0.09,0.137c-0.039,0.029-0.08,0.042-0.123,0.042h-2.408v7.625c0,0.049-0.014,0.095-0.047,0.133
	c-0.029,0.038-0.083,0.07-0.157,0.094c-0.076,0.025-0.177,0.042-0.303,0.061c-0.127,0.012-0.284,0.021-0.47,0.021
	c-0.19,0-0.347-0.009-0.473-0.021c-0.125-0.019-0.224-0.035-0.3-0.061c-0.074-0.024-0.126-0.056-0.161-0.094
	c-0.031-0.038-0.046-0.084-0.046-0.133v-7.625h-2.405c-0.048,0-0.09-0.013-0.126-0.042c-0.035-0.031-0.064-0.073-0.09-0.137
	c-0.026-0.059-0.042-0.14-0.056-0.238c-0.013-0.104-0.02-0.22-0.02-0.364c0-0.146,0.007-0.266,0.02-0.373
	c0.014-0.102,0.029-0.185,0.056-0.244c0.025-0.062,0.055-0.105,0.09-0.133c0.036-0.027,0.078-0.039,0.126-0.039h6.771
	c0.043,0,0.084,0.012,0.123,0.039c0.034,0.028,0.067,0.071,0.09,0.133c0.028,0.059,0.044,0.142,0.056,0.244
	C149.063,223.302,149.068,223.422,149.068,223.568"/>
<path fill="#204283" d="M160.459,231.483c0,0.142-0.006,0.26-0.017,0.357c-0.014,0.094-0.032,0.171-0.056,0.23
	c-0.028,0.056-0.056,0.099-0.092,0.126c-0.039,0.026-0.078,0.042-0.125,0.042h-4.824c-0.161,0-0.301-0.048-0.413-0.143
	c-0.109-0.097-0.164-0.25-0.164-0.463v-8.246c0-0.215,0.055-0.37,0.164-0.465c0.112-0.094,0.252-0.141,0.413-0.141h4.795
	c0.046,0,0.085,0.012,0.12,0.038c0.034,0.022,0.064,0.064,0.09,0.126s0.042,0.137,0.056,0.232c0.011,0.097,0.017,0.215,0.017,0.364
	c0,0.137-0.005,0.252-0.017,0.348c-0.014,0.095-0.031,0.17-0.056,0.231c-0.025,0.057-0.056,0.099-0.09,0.126
	c-0.035,0.029-0.074,0.041-0.12,0.041h-3.43v2.309h2.902c0.046,0,0.085,0.016,0.125,0.041c0.037,0.028,0.066,0.07,0.092,0.126
	c0.024,0.055,0.042,0.13,0.055,0.227c0.016,0.095,0.021,0.211,0.021,0.344c0,0.143-0.005,0.26-0.021,0.353
	c-0.013,0.092-0.031,0.167-0.055,0.224c-0.026,0.053-0.056,0.095-0.092,0.121c-0.039,0.024-0.078,0.035-0.125,0.035h-2.902v2.669
	h3.459c0.046,0,0.085,0.012,0.125,0.041c0.037,0.026,0.064,0.067,0.092,0.127c0.024,0.057,0.042,0.137,0.056,0.229
	C160.453,231.223,160.459,231.343,160.459,231.483"/>
<path fill="#204283" d="M173.87,231.988c0,0.054-0.01,0.098-0.028,0.137c-0.021,0.035-0.069,0.066-0.145,0.091
	c-0.073,0.026-0.182,0.041-0.326,0.052c-0.143,0.007-0.34,0.014-0.583,0.014c-0.208,0-0.375-0.007-0.496-0.014
	c-0.127-0.011-0.224-0.028-0.295-0.055c-0.073-0.029-0.124-0.06-0.153-0.102c-0.031-0.041-0.056-0.094-0.076-0.15l-0.862-2.113
	c-0.102-0.238-0.203-0.451-0.302-0.638c-0.098-0.184-0.21-0.339-0.329-0.463c-0.121-0.125-0.262-0.217-0.418-0.279
	c-0.16-0.066-0.345-0.098-0.549-0.098h-0.61v3.604c0,0.049-0.019,0.095-0.051,0.133c-0.031,0.038-0.085,0.07-0.158,0.094
	c-0.074,0.022-0.175,0.043-0.296,0.061c-0.124,0.012-0.282,0.021-0.475,0.021c-0.189,0-0.348-0.009-0.474-0.021
	c-0.126-0.017-0.227-0.038-0.299-0.061c-0.073-0.024-0.126-0.056-0.157-0.094c-0.031-0.038-0.042-0.084-0.042-0.133v-8.588
	c0-0.215,0.053-0.37,0.165-0.462c0.112-0.1,0.247-0.144,0.412-0.144h2.486c0.255,0,0.462,0.005,0.625,0.015
	c0.165,0.01,0.315,0.021,0.445,0.034c0.386,0.056,0.733,0.148,1.043,0.28c0.31,0.132,0.573,0.303,0.788,0.515
	c0.214,0.213,0.381,0.461,0.494,0.753c0.111,0.289,0.168,0.622,0.168,0.997c0,0.316-0.041,0.605-0.122,0.865
	c-0.081,0.261-0.2,0.493-0.358,0.697c-0.16,0.206-0.354,0.387-0.588,0.534c-0.232,0.152-0.497,0.273-0.795,0.368
	c0.146,0.067,0.28,0.151,0.405,0.248c0.127,0.095,0.246,0.217,0.357,0.353c0.112,0.141,0.218,0.298,0.316,0.478
	c0.098,0.178,0.196,0.376,0.291,0.602l0.808,1.865c0.074,0.185,0.125,0.32,0.148,0.405
	C173.857,231.873,173.87,231.943,173.87,231.988 M171.354,225.571c0-0.313-0.07-0.574-0.219-0.789
	c-0.141-0.215-0.378-0.367-0.703-0.455c-0.098-0.021-0.21-0.043-0.336-0.058c-0.126-0.017-0.303-0.022-0.523-0.022h-0.876v2.683
	h0.994c0.277,0,0.518-0.034,0.729-0.1c0.203-0.065,0.378-0.157,0.517-0.276c0.14-0.122,0.244-0.263,0.311-0.428
	C171.319,225.962,171.354,225.777,171.354,225.571"/>
<path fill="#204283" d="M193.14,231.433c0,0.146-0.004,0.27-0.02,0.368c-0.011,0.101-0.029,0.184-0.053,0.25
	c-0.025,0.064-0.055,0.114-0.095,0.143c-0.037,0.026-0.08,0.043-0.127,0.043h-4.403c-0.164,0-0.301-0.048-0.411-0.143
	c-0.113-0.097-0.167-0.25-0.167-0.466v-8.589c0-0.045,0.013-0.088,0.043-0.127c0.034-0.042,0.087-0.073,0.163-0.098
	c0.076-0.022,0.173-0.042,0.302-0.056c0.123-0.015,0.283-0.021,0.47-0.021c0.192,0,0.352,0.005,0.474,0.021
	c0.126,0.014,0.224,0.034,0.299,0.056c0.073,0.025,0.126,0.056,0.157,0.098c0.031,0.039,0.051,0.083,0.051,0.127v7.613h3.021
	c0.048,0,0.091,0.013,0.127,0.038c0.041,0.03,0.07,0.072,0.095,0.133c0.024,0.059,0.042,0.139,0.053,0.239
	C193.136,231.163,193.14,231.288,193.14,231.433"/>
<path fill="#204283" d="M200.813,231.974c0,0.047-0.017,0.092-0.051,0.133c-0.031,0.038-0.086,0.07-0.157,0.094
	c-0.076,0.025-0.173,0.042-0.299,0.061c-0.124,0.012-0.28,0.021-0.474,0.021c-0.188,0-0.346-0.009-0.47-0.021
	c-0.126-0.019-0.228-0.035-0.302-0.061c-0.076-0.024-0.129-0.056-0.16-0.094c-0.032-0.041-0.05-0.085-0.05-0.133v-8.932
	c0-0.046,0.018-0.093,0.05-0.132c0.031-0.039,0.087-0.07,0.165-0.094c0.076-0.024,0.175-0.043,0.297-0.058
	c0.126-0.015,0.283-0.023,0.47-0.023c0.193,0,0.35,0.008,0.474,0.023c0.126,0.014,0.224,0.034,0.299,0.058
	c0.07,0.024,0.126,0.055,0.157,0.094c0.034,0.039,0.051,0.085,0.051,0.132V231.974z"/>
<path fill="#204283" d="M212.247,231.902c-0.023,0.08-0.054,0.15-0.096,0.203c-0.042,0.048-0.104,0.087-0.193,0.115
	c-0.088,0.025-0.21,0.042-0.364,0.051c-0.152,0.008-0.353,0.011-0.601,0.011c-0.197,0-0.368-0.003-0.508-0.003
	c-0.142-0.006-0.258-0.011-0.358-0.018c-0.101-0.013-0.184-0.027-0.244-0.046c-0.062-0.017-0.112-0.045-0.154-0.073
	c-0.045-0.028-0.076-0.064-0.098-0.106c-0.022-0.039-0.043-0.092-0.063-0.154l-2.856-8.386c-0.063-0.174-0.097-0.314-0.11-0.416
	c-0.01-0.102,0.014-0.181,0.076-0.231c0.064-0.05,0.168-0.084,0.316-0.095c0.146-0.01,0.355-0.018,0.622-0.018
	c0.227,0,0.406,0.008,0.533,0.015c0.13,0.011,0.231,0.025,0.301,0.05c0.068,0.024,0.117,0.062,0.143,0.109
	c0.028,0.05,0.052,0.109,0.079,0.184l2.338,7.295h0.008l2.293-7.258c0.02-0.081,0.047-0.151,0.076-0.2
	c0.028-0.052,0.078-0.094,0.149-0.122c0.074-0.029,0.175-0.048,0.31-0.059c0.134-0.007,0.315-0.015,0.549-0.015
	c0.227,0,0.406,0.008,0.529,0.023c0.126,0.014,0.214,0.048,0.262,0.105c0.045,0.054,0.063,0.134,0.045,0.236
	c-0.019,0.105-0.056,0.241-0.116,0.409L212.247,231.902z"/>
<path fill="#204283" d="M226.714,231.483c0,0.142-0.007,0.26-0.02,0.357c-0.013,0.094-0.031,0.171-0.056,0.23
	c-0.026,0.056-0.056,0.099-0.092,0.126c-0.037,0.026-0.079,0.042-0.122,0.042h-4.827c-0.163,0-0.301-0.048-0.41-0.143
	c-0.112-0.097-0.167-0.25-0.167-0.463v-8.246c0-0.215,0.054-0.37,0.167-0.465c0.109-0.094,0.248-0.141,0.41-0.141h4.795
	c0.045,0,0.084,0.012,0.122,0.038c0.032,0.022,0.063,0.064,0.087,0.126c0.026,0.062,0.043,0.137,0.057,0.232
	c0.013,0.097,0.017,0.215,0.017,0.364c0,0.137-0.004,0.252-0.017,0.348c-0.014,0.095-0.031,0.17-0.057,0.231
	c-0.024,0.057-0.055,0.099-0.087,0.126c-0.038,0.029-0.077,0.041-0.122,0.041h-3.43v2.309h2.903c0.043,0,0.084,0.016,0.124,0.041
	c0.036,0.028,0.065,0.07,0.091,0.126c0.026,0.055,0.043,0.13,0.058,0.227c0.012,0.095,0.018,0.211,0.018,0.344
	c0,0.143-0.006,0.26-0.018,0.353c-0.014,0.092-0.031,0.167-0.058,0.224c-0.025,0.053-0.055,0.095-0.091,0.121
	c-0.04,0.024-0.08,0.035-0.124,0.035h-2.903v2.669h3.462c0.043,0,0.085,0.012,0.122,0.041c0.036,0.026,0.066,0.067,0.092,0.127
	c0.025,0.057,0.043,0.137,0.056,0.229C226.707,231.223,226.714,231.343,226.714,231.483"/>
<path fill="#204283" d="M238.541,229.4c0,0.496-0.096,0.932-0.283,1.308c-0.188,0.378-0.444,0.689-0.763,0.941
	c-0.324,0.252-0.699,0.438-1.131,0.567c-0.429,0.125-0.889,0.189-1.379,0.189c-0.333,0-0.642-0.027-0.924-0.079
	c-0.284-0.056-0.538-0.118-0.756-0.196c-0.217-0.076-0.399-0.154-0.543-0.235c-0.146-0.084-0.252-0.155-0.316-0.221
	c-0.065-0.064-0.109-0.155-0.137-0.271c-0.025-0.123-0.042-0.292-0.042-0.515c0-0.154,0.006-0.28,0.017-0.382
	c0.011-0.104,0.025-0.185,0.047-0.248c0.022-0.064,0.049-0.109,0.09-0.138c0.036-0.022,0.078-0.041,0.129-0.041
	c0.071,0,0.167,0.041,0.294,0.125c0.126,0.08,0.286,0.167,0.487,0.266c0.196,0.095,0.434,0.187,0.708,0.266
	c0.273,0.08,0.594,0.121,0.952,0.121c0.239,0,0.451-0.03,0.641-0.084c0.188-0.058,0.347-0.137,0.479-0.238
	c0.129-0.101,0.232-0.229,0.301-0.381c0.066-0.151,0.105-0.319,0.105-0.504c0-0.214-0.059-0.399-0.182-0.552
	c-0.118-0.154-0.274-0.29-0.462-0.41c-0.192-0.119-0.409-0.229-0.65-0.336c-0.245-0.105-0.494-0.215-0.75-0.332
	c-0.256-0.115-0.507-0.252-0.75-0.398c-0.241-0.15-0.456-0.325-0.648-0.535c-0.189-0.207-0.347-0.448-0.466-0.735
	c-0.116-0.282-0.176-0.619-0.176-1.017c0-0.452,0.085-0.85,0.255-1.197c0.17-0.342,0.401-0.625,0.691-0.853
	c0.289-0.225,0.63-0.396,1.025-0.506c0.394-0.114,0.809-0.168,1.25-0.168c0.226,0,0.455,0.019,0.682,0.052
	c0.229,0.033,0.442,0.081,0.641,0.137c0.196,0.059,0.371,0.125,0.525,0.198c0.153,0.073,0.256,0.136,0.304,0.185
	c0.051,0.048,0.083,0.088,0.101,0.122c0.017,0.035,0.031,0.081,0.043,0.137c0.012,0.055,0.022,0.126,0.028,0.21
	c0.005,0.088,0.007,0.19,0.007,0.319c0,0.141-0.002,0.26-0.008,0.357c-0.011,0.096-0.024,0.178-0.039,0.242
	c-0.02,0.064-0.043,0.109-0.073,0.137c-0.034,0.031-0.077,0.045-0.133,0.045c-0.053,0-0.141-0.031-0.259-0.105
	c-0.119-0.065-0.263-0.141-0.437-0.22c-0.173-0.078-0.376-0.154-0.602-0.221c-0.227-0.067-0.479-0.095-0.751-0.095
	c-0.211,0-0.398,0.025-0.556,0.074c-0.157,0.052-0.291,0.125-0.396,0.214c-0.106,0.091-0.185,0.196-0.238,0.322
	c-0.052,0.129-0.077,0.262-0.077,0.406c0,0.206,0.056,0.389,0.173,0.542c0.118,0.155,0.272,0.29,0.469,0.41
	c0.192,0.117,0.416,0.231,0.662,0.339c0.249,0.101,0.501,0.212,0.759,0.327c0.253,0.118,0.51,0.252,0.757,0.4
	c0.245,0.151,0.468,0.326,0.663,0.535c0.19,0.206,0.347,0.451,0.463,0.728C238.482,228.692,238.541,229.022,238.541,229.4"/>
<path fill="#204283" d="M165.375,73.919c-7.246-5.542-23.164-17.794-30.049-23.825c0,0-1.406-1.524-3.926,0
	c-13.011,7.19-28.015,6.913-36.068,11.862c-0.664,0.589-1.417,1.699,0.304,2.865c0,0,30.702,20.696,48.149,44.148
	c5.5,7.361,21.708,29.431,22.482,46.925c1.34-35.87,8.175-51.817,4.823-73.918C170.49,78.465,167.664,75.668,165.375,73.919"/>
<path fill="#204283" d="M182.469,73.919c7.248-5.542,23.162-17.794,30.054-23.825c0,0,1.397-1.524,3.906,0
	c13.023,7.19,28.034,6.913,36.08,11.862c0.664,0.589,1.418,1.699-0.295,2.865c0,0-30.714,20.696-48.15,44.148
	c-5.51,7.361-21.714,29.431-22.487,46.925c-1.344-35.87-8.186-51.817-4.827-73.918C177.36,78.465,180.184,75.668,182.469,73.919"/>
<rect fill="#204283" width="26.753" height="260.072"/>
</svg>
