<?xml version="1.0" encoding="utf-8"?>
<!-- Generator: Adobe Illustrator 15.0.0, SVG Export Plug-In  -->
<!DOCTYPE svg PUBLIC "-//W3C//DTD SVG 1.1//EN" "http://www.w3.org/Graphics/SVG/1.1/DTD/svg11.dtd" [
	<!ENTITY ns_flows "http://ns.adobe.com/Flows/1.0/">
]>
<svg version="1.1"
	 xmlns="http://www.w3.org/2000/svg" xmlns:xlink="http://www.w3.org/1999/xlink" xmlns:a="http://ns.adobe.com/AdobeSVGViewerExtensions/3.0/"
	 x="0px" y="0px" width="19px" height="19px" viewBox="-0.093 0 19 19" enable-background="new -0.093 0 19 19"
	 xml:space="preserve">
<defs>
</defs>
<polygon fill="#189246" points="9.819,7.907 8.752,7.907 8.034,10.641 7.249,7.907 6.177,7.907 7.499,12.085 8.571,12.085 
	9.278,9.397 10.002,12.085 11.061,12.085 12.405,7.907 11.317,7.907 10.515,10.641 "/>
<path fill="#20A5D3" d="M9.34,0C4.183,0,0,4.18,0,9.338c0,5.157,4.183,9.337,9.34,9.337c5.158,0,9.334-4.18,9.334-9.337
	C18.675,4.18,14.499,0,9.34,0 M9.34,17.217c-4.353,0-7.878-3.53-7.878-7.879c0-4.35,3.526-7.88,7.878-7.88
	c4.35,0,7.875,3.53,7.875,7.88C17.216,13.687,13.69,17.217,9.34,17.217"/>
<path fill="#20A5D3" d="M14.008,6.234c-0.157,0.094-0.628,0.277-1.069,0.326c0.281-0.163,0.7-0.699,0.805-1.131
	c-0.272,0.189-0.896,0.461-1.204,0.461v0.003c-0.35-0.396-0.844-0.642-1.393-0.642c-1.063,0-1.923,0.93-1.923,2.074
	c0,0.16,0.017,0.314,0.05,0.462C7.827,7.747,6.139,6.971,5.19,5.635C4.605,6.728,5.108,7.938,5.772,8.379
	C5.55,8.396,5.128,8.35,4.932,8.144c-0.013,0.723,0.311,1.678,1.485,2.028c-0.226,0.131-0.625,0.092-0.798,0.064
	c0.059,0.608,0.85,1.407,1.717,1.407c-0.307,0.386-1.364,1.082-2.666,0.86c0.886,0.581,1.919,0.919,3.012,0.919
	c3.107,0,5.522-2.712,5.39-6.058V7.353V7.326V7.293C13.357,7.087,13.736,6.718,14.008,6.234"/>
</svg>
